{
    "asset" : {
        "generator" : "Khronos glTF Blender I/O v1.6.16",
        "version" : "2.0"
    },
    "scene" : 0,
    "scenes" : [
        {
            "name" : "Scene",
            "nodes" : [
                0,
                1,
                2,
                3,
                4,
                5,
                6
            ]
        }
    ],
    "nodes" : [
        {
            "mesh" : 0,
            "name" : "path0",
            "rotation" : [
                0.5115970969200134,
                0,
                0,
                0.8592254519462585
            ]
        },
        {
            "mesh" : 1,
            "name" : "path1",
            "rotation" : [
                0.5115970969200134,
                0,
                0,
                0.8592254519462585
            ]
        },
        {
            "mesh" : 2,
            "name" : "path2",
            "rotation" : [
                0.5115970969200134,
                0,
                0,
                0.8592254519462585
            ]
        },
        {
            "mesh" : 3,
            "name" : "path3",
            "rotation" : [
                0.5115970969200134,
                0,
                0,
                0.8592254519462585
            ]
        },
        {
            "mesh" : 4,
            "name" : "path4",
            "rotation" : [
                0.5115970969200134,
                0,
                0,
                0.8592254519462585
            ]
        },
        {
            "mesh" : 5,
            "name" : "path5",
            "rotation" : [
                0.5115970969200134,
                0,
                0,
                0.8592254519462585
            ]
        },
        {
            "mesh" : 6,
            "name" : "path6",
            "rotation" : [
                0.5115970969200134,
                0,
                0,
                0.8592254519462585
            ]
        }
    ],
    "materials" : [
        {
            "doubleSided" : true,
            "name" : "SVGMat.005",
            "pbrMetallicRoughness" : {
                "baseColorFactor" : [
                    0.0015176349552348256,
                    0.0012141079641878605,
                    0.0012141079641878605,
                    1
                ],
                "metallicFactor" : 0,
                "roughnessFactor" : 0.4000000059604645
            }
        },
        {
            "doubleSided" : true,
            "name" : "SVGMat.006",
            "pbrMetallicRoughness" : {
                "baseColorFactor" : [
                    0.8148465752601624,
                    0.8148465752601624,
                    0.8148465752601624,
                    1
                ],
                "metallicFactor" : 0,
                "roughnessFactor" : 0.4000000059604645
            }
        },
        {
            "doubleSided" : true,
            "name" : "SVGMat.007",
            "pbrMetallicRoughness" : {
                "baseColorFactor" : [
                    0.8148465752601624,
                    0.1119324266910553,
                    0.13286831974983215,
                    1
                ],
                "metallicFactor" : 0,
                "roughnessFactor" : 0.4000000059604645
            }
        },
        {
            "doubleSided" : true,
            "name" : "SVGMat.014",
            "pbrMetallicRoughness" : {
                "baseColorFactor" : [
                    0.48514994978904724,
                    0.2158605009317398,
                    0.2158605009317398,
                    1
                ],
                "metallicFactor" : 0,
                "roughnessFactor" : 0.4000000059604645
            }
        },
        {
            "doubleSided" : true,
            "name" : "SVGMat.015",
            "pbrMetallicRoughness" : {
                "baseColorFactor" : [
                    0.9822505712509155,
                    0.06301001459360123,
                    0.09084171056747437,
                    1
                ],
                "metallicFactor" : 0,
                "roughnessFactor" : 0.4000000059604645
            }
        },
        {
            "doubleSided" : true,
            "name" : "SVGMat.016",
            "pbrMetallicRoughness" : {
                "baseColorFactor" : [
                    0.423267662525177,
                    0.14995978772640228,
                    0.14995978772640228,
                    1
                ],
                "metallicFactor" : 0,
                "roughnessFactor" : 0.4000000059604645
            }
        },
        {
            "doubleSided" : true,
            "name" : "SVGMat.017",
            "pbrMetallicRoughness" : {
                "baseColorFactor" : [
                    0.6795424818992615,
                    0.6307571530342102,
                    0.672443151473999,
                    1
                ],
                "metallicFactor" : 0,
                "roughnessFactor" : 0.4000000059604645
            }
        }
    ],
    "meshes" : [
        {
            "name" : "path0.001",
            "primitives" : [
                {
                    "attributes" : {
                        "POSITION" : 0,
                        "NORMAL" : 1,
                        "TEXCOORD_0" : 2
                    },
                    "indices" : 3,
                    "material" : 0
                }
            ]
        },
        {
            "name" : "path1.001",
            "primitives" : [
                {
                    "attributes" : {
                        "POSITION" : 4,
                        "NORMAL" : 5,
                        "TEXCOORD_0" : 6
                    },
                    "indices" : 7,
                    "material" : 1
                }
            ]
        },
        {
            "name" : "path2.001",
            "primitives" : [
                {
                    "attributes" : {
                        "POSITION" : 8,
                        "NORMAL" : 9,
                        "TEXCOORD_0" : 10
                    },
                    "indices" : 11,
                    "material" : 2
                }
            ]
        },
        {
            "name" : "path3.001",
            "primitives" : [
                {
                    "attributes" : {
                        "POSITION" : 12,
                        "NORMAL" : 13,
                        "TEXCOORD_0" : 14
                    },
                    "indices" : 15,
                    "material" : 3
                }
            ]
        },
        {
            "name" : "path4",
            "primitives" : [
                {
                    "attributes" : {
                        "POSITION" : 16,
                        "NORMAL" : 17,
                        "TEXCOORD_0" : 18
                    },
                    "indices" : 19,
                    "material" : 4
                }
            ]
        },
        {
            "name" : "path5",
            "primitives" : [
                {
                    "attributes" : {
                        "POSITION" : 20,
                        "NORMAL" : 21,
                        "TEXCOORD_0" : 22
                    },
                    "indices" : 23,
                    "material" : 5
                }
            ]
        },
        {
            "name" : "path6",
            "primitives" : [
                {
                    "attributes" : {
                        "POSITION" : 24,
                        "NORMAL" : 25,
                        "TEXCOORD_0" : 26
                    },
                    "indices" : 27,
                    "material" : 6
                }
            ]
        }
    ],
    "accessors" : [
        {
            "bufferView" : 0,
            "componentType" : 5126,
            "count" : 32072,
            "max" : [
                0.10792771726846695,
                0.004999999888241291,
                -4.387646185932681e-05
            ],
            "min" : [
                0.004967212677001953,
                -0.004999999888241291,
                -0.11284857988357544
            ],
            "type" : "VEC3"
        },
        {
            "bufferView" : 1,
            "componentType" : 5126,
            "count" : 32072,
            "type" : "VEC3"
        },
        {
            "bufferView" : 2,
            "componentType" : 5126,
            "count" : 32072,
            "type" : "VEC2"
        },
        {
            "bufferView" : 3,
            "componentType" : 5123,
            "count" : 57180,
            "type" : "SCALAR"
        },
        {
            "bufferView" : 4,
            "componentType" : 5126,
            "count" : 1906,
            "max" : [
                0.08324476331472397,
                0.003000000026077032,
                -0.031215444207191467
            ],
            "min" : [
                0.04228593781590462,
                -0.003000000026077032,
                -0.08318324387073517
            ],
            "type" : "VEC3"
        },
        {
            "bufferView" : 5,
            "componentType" : 5126,
            "count" : 1906,
            "type" : "VEC3"
        },
        {
            "bufferView" : 6,
            "componentType" : 5126,
            "count" : 1906,
            "type" : "VEC2"
        },
        {
            "bufferView" : 7,
            "componentType" : 5123,
            "count" : 3480,
            "type" : "SCALAR"
        },
        {
            "bufferView" : 8,
            "componentType" : 5126,
            "count" : 2532,
            "max" : [
                0.101447194814682,
                0.003000000026077032,
                -0.027481600642204285
            ],
            "min" : [
                0.07710584253072739,
                -0.003000000026077032,
                -0.10669370740652084
            ],
            "type" : "VEC3"
        },
        {
            "bufferView" : 9,
            "componentType" : 5126,
            "count" : 2532,
            "type" : "VEC3"
        },
        {
            "bufferView" : 10,
            "componentType" : 5126,
            "count" : 2532,
            "type" : "VEC2"
        },
        {
            "bufferView" : 11,
            "componentType" : 5123,
            "count" : 4860,
            "type" : "SCALAR"
        },
        {
            "bufferView" : 12,
            "componentType" : 5126,
            "count" : 4384,
            "max" : [
                0.08341318368911743,
                0.003000000026077032,
                -0.00557785015553236
            ],
            "min" : [
                0.008575141429901123,
                -0.003000000026077032,
                -0.08339862525463104
            ],
            "type" : "VEC3"
        },
        {
            "bufferView" : 13,
            "componentType" : 5126,
            "count" : 4384,
            "type" : "VEC3"
        },
        {
            "bufferView" : 14,
            "componentType" : 5126,
            "count" : 4384,
            "type" : "VEC2"
        },
        {
            "bufferView" : 15,
            "componentType" : 5123,
            "count" : 8100,
            "type" : "SCALAR"
        },
        {
            "bufferView" : 16,
            "componentType" : 5126,
            "count" : 4466,
            "max" : [
                0.10440803319215775,
                0.0020000000949949026,
                -0.027710609138011932
            ],
            "min" : [
                0.0792507454752922,
                -0.0020000000949949026,
                -0.10868360102176666
            ],
            "type" : "VEC3"
        },
        {
            "bufferView" : 17,
            "componentType" : 5126,
            "count" : 4466,
            "type" : "VEC3"
        },
        {
            "bufferView" : 18,
            "componentType" : 5126,
            "count" : 4466,
            "type" : "VEC2"
        },
        {
            "bufferView" : 19,
            "componentType" : 5123,
            "count" : 7632,
            "type" : "SCALAR"
        },
        {
            "bufferView" : 20,
            "componentType" : 5126,
            "count" : 25024,
            "max" : [
                0.10450645536184311,
                0.0020000000949949026,
                -0.0033321422524750233
            ],
            "min" : [
                0.008393289521336555,
                -0.0020000000949949026,
                -0.10884730517864227
            ],
            "type" : "VEC3"
        },
        {
            "bufferView" : 21,
            "componentType" : 5126,
            "count" : 25024,
            "type" : "VEC3"
        },
        {
            "bufferView" : 22,
            "componentType" : 5126,
            "count" : 25024,
            "type" : "VEC2"
        },
        {
            "bufferView" : 23,
            "componentType" : 5123,
            "count" : 45672,
            "type" : "SCALAR"
        },
        {
            "bufferView" : 24,
            "componentType" : 5126,
            "count" : 5716,
            "max" : [
                0.0833120122551918,
                0.0020000000949949026,
                -0.027932094410061836
            ],
            "min" : [
                0.0422213077545166,
                -0.0020000000949949026,
                -0.08328334987163544
            ],
            "type" : "VEC3"
        },
        {
            "bufferView" : 25,
            "componentType" : 5126,
            "count" : 5716,
            "type" : "VEC3"
        },
        {
            "bufferView" : 26,
            "componentType" : 5126,
            "count" : 5716,
            "type" : "VEC2"
        },
        {
            "bufferView" : 27,
            "componentType" : 5123,
            "count" : 10548,
            "type" : "SCALAR"
        }
    ],
    "bufferViews" : [
        {
            "buffer" : 0,
            "byteLength" : 384864,
            "byteOffset" : 0
        },
        {
            "buffer" : 0,
            "byteLength" : 384864,
            "byteOffset" : 384864
        },
        {
            "buffer" : 0,
            "byteLength" : 256576,
            "byteOffset" : 769728
        },
        {
            "buffer" : 0,
            "byteLength" : 114360,
            "byteOffset" : 1026304
        },
        {
            "buffer" : 0,
            "byteLength" : 22872,
            "byteOffset" : 1140664
        },
        {
            "buffer" : 0,
            "byteLength" : 22872,
            "byteOffset" : 1163536
        },
        {
            "buffer" : 0,
            "byteLength" : 15248,
            "byteOffset" : 1186408
        },
        {
            "buffer" : 0,
            "byteLength" : 6960,
            "byteOffset" : 1201656
        },
        {
            "buffer" : 0,
            "byteLength" : 30384,
            "byteOffset" : 1208616
        },
        {
            "buffer" : 0,
            "byteLength" : 30384,
            "byteOffset" : 1239000
        },
        {
            "buffer" : 0,
            "byteLength" : 20256,
            "byteOffset" : 1269384
        },
        {
            "buffer" : 0,
            "byteLength" : 9720,
            "byteOffset" : 1289640
        },
        {
            "buffer" : 0,
            "byteLength" : 52608,
            "byteOffset" : 1299360
        },
        {
            "buffer" : 0,
            "byteLength" : 52608,
            "byteOffset" : 1351968
        },
        {
            "buffer" : 0,
            "byteLength" : 35072,
            "byteOffset" : 1404576
        },
        {
            "buffer" : 0,
            "byteLength" : 16200,
            "byteOffset" : 1439648
        },
        {
            "buffer" : 0,
            "byteLength" : 53592,
            "byteOffset" : 1455848
        },
        {
            "buffer" : 0,
            "byteLength" : 53592,
            "byteOffset" : 1509440
        },
        {
            "buffer" : 0,
            "byteLength" : 35728,
            "byteOffset" : 1563032
        },
        {
            "buffer" : 0,
            "byteLength" : 15264,
            "byteOffset" : 1598760
        },
        {
            "buffer" : 0,
            "byteLength" : 300288,
            "byteOffset" : 1614024
        },
        {
            "buffer" : 0,
            "byteLength" : 300288,
            "byteOffset" : 1914312
        },
        {
            "buffer" : 0,
            "byteLength" : 200192,
            "byteOffset" : 2214600
        },
        {
            "buffer" : 0,
            "byteLength" : 91344,
            "byteOffset" : 2414792
        },
        {
            "buffer" : 0,
            "byteLength" : 68592,
            "byteOffset" : 2506136
        },
        {
            "buffer" : 0,
            "byteLength" : 68592,
            "byteOffset" : 2574728
        },
        {
            "buffer" : 0,
            "byteLength" : 45728,
            "byteOffset" : 2643320
        },
        {
            "buffer" : 0,
            "byteLength" : 21096,
            "byteOffset" : 2689048
        }
    ],
    "buffers" : [
        {
            "byteLength" : 2710144,
            "uri" : "data:application/octet-stream;base64,"
        }
    ]
}
