{
    "asset" : {
        "generator" : "Khronos glTF Blender I/O v1.6.16",
        "version" : "2.0"
    },
    "scene" : 0,
    "scenes" : [
        {
            "name" : "Scene",
            "nodes" : [
                0,
                1,
                2
            ]
        }
    ],
    "nodes" : [
        {
            "mesh" : 0,
            "name" : "path0",
            "rotation" : [
                0.5631335377693176,
                0,
                0,
                0.8263658881187439
            ],
            "translation" : [
                0,
                0.010669823735952377,
                0
            ]
        },
        {
            "mesh" : 1,
            "name" : "path1",
            "rotation" : [
                0.5631335377693176,
                0,
                0,
                0.8263658881187439
            ],
            "translation" : [
                0,
                0.010669823735952377,
                0
            ]
        },
        {
            "mesh" : 2,
            "name" : "path2",
            "rotation" : [
                0.5631335377693176,
                0,
                0,
                0.8263658881187439
            ],
            "translation" : [
                0,
                0.010669823735952377,
                0
            ]
        }
    ],
    "materials" : [
        {
            "doubleSided" : true,
            "name" : "SVGMat.001",
            "pbrMetallicRoughness" : {
                "baseColorFactor" : [
                    0.0012141079641878605,
                    0.0012141079641878605,
                    0.0012141079641878605,
                    1
                ],
                "metallicFactor" : 0,
                "roughnessFactor" : 0.4000000059604645
            }
        },
        {
            "doubleSided" : true,
            "name" : "SVGMat.002",
            "pbrMetallicRoughness" : {
                "baseColorFactor" : [
                    1,
                    0.08865558356046677,
                    0.05126945674419403,
                    1
                ],
                "metallicFactor" : 0,
                "roughnessFactor" : 0.4000000059604645
            }
        },
        {
            "doubleSided" : true,
            "name" : "SVGMat.003",
            "pbrMetallicRoughness" : {
                "baseColorFactor" : [
                    0.7304607629776001,
                    0.016807375475764275,
                    0.004024717025458813,
                    1
                ],
                "metallicFactor" : 0,
                "roughnessFactor" : 0.4000000059604645
            }
        }
    ],
    "meshes" : [
        {
            "name" : "path0",
            "primitives" : [
                {
                    "attributes" : {
                        "POSITION" : 0,
                        "NORMAL" : 1,
                        "TEXCOORD_0" : 2
                    },
                    "indices" : 3,
                    "material" : 0
                }
            ]
        },
        {
            "name" : "path1",
            "primitives" : [
                {
                    "attributes" : {
                        "POSITION" : 4,
                        "NORMAL" : 5,
                        "TEXCOORD_0" : 6
                    },
                    "indices" : 7,
                    "material" : 1
                }
            ]
        },
        {
            "name" : "path2",
            "primitives" : [
                {
                    "attributes" : {
                        "POSITION" : 8,
                        "NORMAL" : 9,
                        "TEXCOORD_0" : 10
                    },
                    "indices" : 11,
                    "material" : 2
                }
            ]
        }
    ],
    "accessors" : [
        {
            "bufferView" : 0,
            "componentType" : 5126,
            "count" : 49098,
            "max" : [
                0.11283475160598755,
                0.004999999888241291,
                -0.003840101882815361
            ],
            "min" : [
                4.325141344452277e-05,
                -0.004999999888241291,
                -0.10903190821409225
            ],
            "type" : "VEC3"
        },
        {
            "bufferView" : 1,
            "componentType" : 5126,
            "count" : 49098,
            "type" : "VEC3"
        },
        {
            "bufferView" : 2,
            "componentType" : 5126,
            "count" : 49098,
            "type" : "VEC2"
        },
        {
            "bufferView" : 3,
            "componentType" : 5123,
            "count" : 90432,
            "type" : "SCALAR"
        },
        {
            "bufferView" : 4,
            "componentType" : 5126,
            "count" : 8231,
            "max" : [
                0.10235878080129623,
                0.0035000001080334187,
                -0.007777974009513855
            ],
            "min" : [
                0.0034397898707538843,
                -0.0035000001080334187,
                -0.10528992861509323
            ],
            "type" : "VEC3"
        },
        {
            "bufferView" : 5,
            "componentType" : 5126,
            "count" : 8231,
            "type" : "VEC3"
        },
        {
            "bufferView" : 6,
            "componentType" : 5126,
            "count" : 8231,
            "type" : "VEC2"
        },
        {
            "bufferView" : 7,
            "componentType" : 5123,
            "count" : 15276,
            "type" : "SCALAR"
        },
        {
            "bufferView" : 8,
            "componentType" : 5126,
            "count" : 18168,
            "max" : [
                0.10956962406635284,
                0.0020000000949949026,
                -0.007674984633922577
            ],
            "min" : [
                0.0033378752414137125,
                -0.0020000000949949026,
                -0.10544449836015701
            ],
            "type" : "VEC3"
        },
        {
            "bufferView" : 9,
            "componentType" : 5126,
            "count" : 18168,
            "type" : "VEC3"
        },
        {
            "bufferView" : 10,
            "componentType" : 5126,
            "count" : 18168,
            "type" : "VEC2"
        },
        {
            "bufferView" : 11,
            "componentType" : 5123,
            "count" : 32736,
            "type" : "SCALAR"
        }
    ],
    "bufferViews" : [
        {
            "buffer" : 0,
            "byteLength" : 589176,
            "byteOffset" : 0
        },
        {
            "buffer" : 0,
            "byteLength" : 589176,
            "byteOffset" : 589176
        },
        {
            "buffer" : 0,
            "byteLength" : 392784,
            "byteOffset" : 1178352
        },
        {
            "buffer" : 0,
            "byteLength" : 180864,
            "byteOffset" : 1571136
        },
        {
            "buffer" : 0,
            "byteLength" : 98772,
            "byteOffset" : 1752000
        },
        {
            "buffer" : 0,
            "byteLength" : 98772,
            "byteOffset" : 1850772
        },
        {
            "buffer" : 0,
            "byteLength" : 65848,
            "byteOffset" : 1949544
        },
        {
            "buffer" : 0,
            "byteLength" : 30552,
            "byteOffset" : 2015392
        },
        {
            "buffer" : 0,
            "byteLength" : 218016,
            "byteOffset" : 2045944
        },
        {
            "buffer" : 0,
            "byteLength" : 218016,
            "byteOffset" : 2263960
        },
        {
            "buffer" : 0,
            "byteLength" : 145344,
            "byteOffset" : 2481976
        },
        {
            "buffer" : 0,
            "byteLength" : 65472,
            "byteOffset" : 2627320
        }
    ],
    "buffers" : [
        {
            "byteLength" : 2692792,
            "uri" : "data:application/octet-stream;base64,"
        }
    ]
}
